<svg width="374" height="374" viewBox="0 0 374 374" fill="none" xmlns="http://www.w3.org/2000/svg">
<circle cx="187" cy="187" r="187" fill="white"/>
<path d="M117.332 56.3438L131.277 91.1484L145.223 56.3438H152.518V99H146.893V82.3887L147.42 64.459L133.416 99H129.109L115.135 64.5469L115.691 82.3887V99H110.066V56.3438H117.332ZM186.531 87.8672H168.66L164.646 99H158.846L175.135 56.3438H180.057L196.375 99H190.604L186.531 87.8672ZM170.359 83.2383H184.861L177.596 63.2871L170.359 83.2383ZM212.957 79.166L207.742 84.5859V99H202.117V56.3438H207.742V77.4375L226.697 56.3438H233.494L216.707 75.1816L234.812 99H228.074L212.957 79.166ZM263.846 79.2832H245.359V94.4004H266.834V99H239.734V56.3438H266.541V60.9727H245.359V74.6836H263.846V79.2832Z" fill="#363B4D"/>
<path d="M128.816 147.76L139.949 126.344H146.336L131.629 153.092V169H126.004V153.092L111.297 126.344H117.742L128.816 147.76ZM183.777 149.049C183.777 153.229 183.074 156.881 181.668 160.006C180.262 163.111 178.27 165.484 175.691 167.125C173.113 168.766 170.105 169.586 166.668 169.586C163.309 169.586 160.33 168.766 157.732 167.125C155.135 165.465 153.113 163.111 151.668 160.064C150.242 156.998 149.51 153.453 149.471 149.43V146.354C149.471 142.252 150.184 138.629 151.609 135.484C153.035 132.34 155.047 129.938 157.645 128.277C160.262 126.598 163.25 125.758 166.609 125.758C170.027 125.758 173.035 126.588 175.633 128.248C178.25 129.889 180.262 132.281 181.668 135.426C183.074 138.551 183.777 142.193 183.777 146.354V149.049ZM178.182 146.295C178.182 141.236 177.166 137.359 175.135 134.664C173.104 131.949 170.262 130.592 166.609 130.592C163.055 130.592 160.252 131.949 158.201 134.664C156.17 137.359 155.125 141.109 155.066 145.914V149.049C155.066 153.951 156.092 157.809 158.143 160.621C160.213 163.414 163.055 164.811 166.668 164.811C170.301 164.811 173.113 163.492 175.105 160.855C177.098 158.199 178.123 154.4 178.182 149.459V146.295ZM222.244 126.344V155.348C222.225 159.371 220.955 162.662 218.436 165.221C215.936 167.779 212.537 169.215 208.24 169.527L206.746 169.586C202.078 169.586 198.357 168.326 195.584 165.807C192.811 163.287 191.404 159.82 191.365 155.406V126.344H196.932V155.23C196.932 158.316 197.781 160.719 199.48 162.438C201.18 164.137 203.602 164.986 206.746 164.986C209.93 164.986 212.361 164.137 214.041 162.438C215.74 160.738 216.59 158.346 216.59 155.26V126.344H222.244ZM246.766 151.744H236.746V169H231.092V126.344H245.213C250.018 126.344 253.709 127.438 256.287 129.625C258.885 131.812 260.184 134.996 260.184 139.176C260.184 141.832 259.461 144.146 258.016 146.119C256.59 148.092 254.598 149.566 252.039 150.543L262.059 168.648V169H256.023L246.766 151.744ZM236.746 147.145H245.389C248.182 147.145 250.398 146.422 252.039 144.977C253.699 143.531 254.529 141.598 254.529 139.176C254.529 136.539 253.738 134.518 252.156 133.111C250.594 131.705 248.328 130.992 245.359 130.973H236.746V147.145ZM134.441 219.283H115.955V234.4H137.43V239H110.33V196.344H137.137V200.973H115.955V214.684H134.441V219.283ZM158.348 212.691L168.572 196.344H175.193L161.717 217.496L175.516 239H168.836L158.348 222.359L147.801 239H141.15L154.979 217.496L141.473 196.344H148.064L158.348 212.691ZM205.604 227.867H187.732L183.719 239H177.918L194.207 196.344H199.129L215.447 239H209.676L205.604 227.867ZM189.432 223.238H203.934L196.668 203.287L189.432 223.238ZM228.455 196.344L242.4 231.148L256.346 196.344H263.641V239H258.016V222.389L258.543 204.459L244.539 239H240.232L226.258 204.547L226.814 222.389V239H221.189V196.344H228.455ZM121.258 292.301V309H115.633V266.344H131.365C136.033 266.344 139.686 267.535 142.322 269.918C144.979 272.301 146.307 275.455 146.307 279.381C146.307 283.521 145.008 286.715 142.41 288.961C139.832 291.188 136.131 292.301 131.307 292.301H121.258ZM121.258 287.701H131.365C134.373 287.701 136.678 286.998 138.279 285.592C139.881 284.166 140.682 282.115 140.682 279.439C140.682 276.9 139.881 274.869 138.279 273.346C136.678 271.822 134.48 271.031 131.688 270.973H121.258V287.701ZM159.139 304.4H179.354V309H153.484V266.344H159.139V304.4ZM209.91 297.867H192.039L188.025 309H182.225L198.514 266.344H203.436L219.754 309H213.982L209.91 297.867ZM193.738 293.238H208.24L200.975 273.287L193.738 293.238ZM258.279 309H252.625L231.15 276.129V309H225.496V266.344H231.15L252.684 299.361V266.344H258.279V309Z" fill="#EB4146"/>
<path d="M291 113H77V324H291V113Z" stroke="#FF0000" stroke-width="4"/>
</svg>
